<svg width="512" height="512" xmlns="http://www.w3.org/2000/svg">

 <g>
  <title>background</title>
  <rect fill="none" id="canvas_background" height="402" width="582" y="-1" x="-1"/>
 </g>
 <g>
  <title>Layer 1</title>
  <path stroke="null" id="svg_1" d="m371.999995,171.999999l-217.999994,0l0,144.000002l217.999994,0l0,-144.000002z" fill="#0084ff"/>
  <path id="svg_2" fill="#fff" d="m257,93c-88.918,0 -161,67.157 -161,150c0,47.205 23.412,89.311 60,116.807l0,57.193l54.819,-30.273c14.63,4.074 30.129,6.273 46.181,6.273c88.918,0 161,-67.157 161,-150s-72.082,-150 -161,-150zm16,202l-41,-44l-80,44l88,-94l42,44l79,-44l-88,94z"/>
  <path id="svg_10" d="m120,405.5" opacity="0.5" stroke-width="null" stroke="null" fill="#0084ff"/>
 </g>
</svg>